<svg xmlns="http://www.w3.org/2000/svg" version="1.2" viewBox="0 0 1080 1080" preserveAspectRatio="xMidYMid meet" baseProfile="tiny-ps" xml:space="preserve"><title>logo.svg</title>

<g transform="translate(0.000000,1080.000000) scale(0.100000,-0.100000)" fill="#000000" stroke="none">
<path d="M5145 10790 c-22 -5 -68 -9 -103 -9 -35 -1 -82 -5 -105 -10 -23 -5 -89 -15 -147 -21 -58 -7 -157 -21 -220 -32 -111 -18 -144 -25 -240 -48 -25 -5 -67 -15 -95 -20 -27 -6 -70 -15 -95 -21 -25 -5 -58 -13 -75 -16 -16 -3 -34 -9 -40 -12 -5 -4 -28 -13 -50 -19 -129 -37 -408 -129 -465 -154 -27 -12 -34 -14 -130 -51 -186 -71 -550 -249 -702 -343 -163 -100 -221 -138 -283 -184 -38 -29 -83 -59 -100 -67 -36 -19 -154 -107 -210 -158 -22 -19 -67 -56 -100 -81 -87 -66 -90 -68 -204 -173 -152 -139 -227 -215 -317 -316 -43 -49 -81 -92 -84 -95 -12 -11 -257 -308 -285 -345 -50 -66 -213 -306 -275 -405 -34 -54 -47 -78 -121 -215 -78 -143 -235 -468 -271 -560 -11 -27 -25 -63 -33 -80 -7 -16 -18 -46 -25 -65 -7 -19 -16 -44 -20 -55 -31 -72 -129 -389 -160 -515 -5 -19 -14 -53 -20 -75 -24 -85 -81 -364 -98 -480 -36 -242 -57 -570 -49 -786 23 -628 38 -788 92 -1014 37 -153 44 -184 54 -235 9 -41 14 -60 40 -152 6 -18 18 -62 27 -98 10 -36 33 -110 51 -165 19 -55 39 -116 45 -135 6 -19 15 -45 19 -57 35 -92 37 -95 109 -263 23 -52 44 -104 48 -115 3 -11 14 -36 25 -55 11 -19 57 -107 102 -195 83 -161 97 -187 152 -280 16 -27 36 -66 45 -85 9 -19 48 -80 87 -135 90 -128 99 -140 140 -189 18 -23 65 -81 102 -131 184 -241 336 -411 477 -534 48 -41 143 -130 212 -197 69 -67 154 -146 190 -175 36 -29 71 -59 78 -66 32 -31 108 -79 242 -151 36 -20 132 -81 215 -136 82 -55 176 -111 210 -123 33 -13 92 -39 130 -58 39 -19 112 -53 164 -75 52 -22 117 -56 145 -75 28 -19 77 -43 108 -54 31 -11 72 -26 90 -35 18 -8 59 -22 91 -31 31 -8 83 -22 115 -30 31 -9 74 -22 94 -30 59 -23 225 -53 328 -58 64 -4 119 -14 169 -31 41 -14 111 -32 155 -40 219 -38 288 -48 304 -41 9 4 116 11 237 16 121 5 238 14 260 20 22 6 138 13 258 16 183 5 229 3 287 -11 l69 -17 51 27 c46 24 64 27 144 28 59 0 110 -6 145 -17 100 -31 234 -19 352 33 65 29 77 31 138 25 46 -4 134 1 288 20 221 26 243 31 358 85 33 16 74 31 90 35 57 12 161 57 350 151 105 51 226 105 270 119 44 14 114 44 155 67 41 24 92 52 113 63 21 11 71 47 111 81 40 33 104 76 142 96 172 90 248 140 411 276 35 29 88 70 119 92 30 21 82 72 115 114 32 42 63 76 67 76 11 0 232 220 299 297 33 38 81 100 108 139 27 38 81 107 120 154 39 47 113 148 166 225 110 163 124 185 236 390 27 50 61 110 76 135 41 69 152 302 176 370 7 19 18 46 23 60 15 36 24 60 38 100 7 19 16 44 20 55 4 11 20 52 35 90 15 39 30 79 35 90 4 11 13 40 20 65 6 25 16 53 21 62 5 10 9 27 9 37 0 11 5 23 10 26 6 3 10 19 10 35 0 16 4 31 9 34 5 3 11 23 14 43 3 21 10 56 16 78 5 22 15 60 21 85 17 65 59 265 70 330 6 30 15 75 21 100 24 98 32 298 33 820 0 575 -4 658 -52 970 -9 57 -44 221 -74 345 -5 22 -12 55 -15 73 -3 18 -9 35 -14 38 -5 3 -9 16 -9 29 0 13 -4 34 -9 47 -5 13 -14 43 -21 68 -24 86 -30 106 -76 240 -25 74 -55 155 -66 180 -11 25 -24 54 -28 65 -4 11 -15 36 -23 55 -9 19 -25 59 -37 89 -30 78 -156 333 -210 426 -26 44 -57 100 -69 124 -26 51 -143 236 -210 332 -105 151 -166 236 -195 270 -17 20 -38 44 -46 55 -175 220 -404 462 -605 639 -49 44 -92 82 -95 85 -3 3 -34 27 -70 54 -36 27 -87 70 -115 96 -41 40 -132 105 -359 260 -12 8 -44 29 -70 45 -27 17 -81 51 -120 76 -125 80 -551 299 -582 299 -3 0 -52 21 -108 46 -55 26 -112 51 -126 56 -14 6 -33 14 -42 19 -10 5 -27 9 -37 9 -11 0 -23 5 -26 10 -3 6 -15 10 -26 10 -10 0 -27 4 -37 9 -9 5 -37 15 -62 22 -25 7 -50 16 -55 20 -6 4 -74 27 -150 49 -224 67 -266 78 -345 90 -30 5 -73 13 -95 19 -80 20 -131 32 -178 41 -26 5 -56 11 -65 14 -21 7 -134 23 -252 37 -196 22 -813 43 -875 29z m465 -350 c443 -21 727 -66 1133 -180 554 -156 1112 -432 1573 -780 204 -153 252 -193 414 -342 169 -155 296 -289 480 -507 25 -30 50 -59 55 -65 52 -56 266 -359 324 -459 27 -45 74 -125 106 -177 66 -108 150 -268 184 -350 13 -30 32 -74 42 -97 11 -23 19 -46 19 -50 0 -5 14 -35 30 -67 17 -33 29 -65 26 -73 -3 -8 -2 -12 2 -9 18 11 142 -308 142 -363 0 -9 4 -21 9 -26 4 -6 11 -23 15 -39 6 -24 5 -26 -6 -15 -7 8 -20 28 -27 44 -11 24 -15 26 -18 12 -3 -10 -12 -16 -20 -15 -9 2 -18 -4 -20 -12 -4 -12 -3 -12 5 -2 14 21 55 -53 42 -77 -5 -10 -6 -21 -3 -25 3 -3 4 -6 0 -6 -3 0 -16 21 -29 47 l-23 46 -3 -33 c-2 -19 1 -36 7 -38 6 -2 11 -20 11 -41 0 -20 6 -46 14 -57 14 -18 15 -18 20 6 3 14 7 34 8 45 2 11 8 20 13 20 5 0 11 -9 13 -20 4 -26 34 -85 44 -85 3 0 8 10 11 23 3 20 4 19 11 -8 4 -16 14 -52 22 -79 22 -75 15 -98 -9 -31 l-22 60 -3 -44 c-2 -29 2 -49 12 -60 9 -10 16 -26 16 -35 0 -12 5 -16 15 -12 19 7 38 -55 33 -104 -4 -39 -13 -27 -23 32 -5 31 -8 36 -19 26 -8 -7 -11 -19 -8 -26 4 -11 6 -11 14 0 6 8 8 -3 6 -34 -2 -25 0 -44 5 -41 4 2 8 -15 9 -39 l1 -43 7 45 c6 34 7 26 5 -34 -2 -43 0 -86 5 -95 5 -9 11 -28 14 -42 4 -18 12 -26 23 -25 16 1 18 -9 20 -74 3 -62 1 -72 -10 -59 -10 14 -12 6 -12 -46 0 -35 2 -62 5 -60 3 2 2 -31 -2 -73 -20 -219 -29 -713 -13 -719 6 -2 9 -31 7 -67 -2 -37 1 -74 8 -86 8 -15 8 -20 1 -16 -7 5 -11 -1 -11 -14 0 -12 4 -19 8 -16 5 3 7 -23 4 -57 -2 -41 0 -57 6 -48 6 8 12 9 16 3 8 -13 -4 -123 -13 -118 -4 3 -7 -21 -7 -52 -1 -31 -6 -84 -11 -117 -9 -50 -11 -54 -12 -22 -1 46 -18 49 -24 5 -3 -22 -5 -15 -6 22 -10 341 -7 306 -26 290 -13 -11 -14 -8 -10 16 2 16 9 139 16 274 12 258 8 538 -10 755 -6 72 -11 151 -12 178 -1 26 -6 47 -10 47 -5 0 -9 21 -9 48 0 33 3 43 10 32 5 -8 7 -25 3 -37 -3 -16 -1 -23 10 -23 17 0 25 30 21 80 -1 19 -3 60 -4 90 -1 44 -3 50 -10 33 -13 -33 -15 -29 -12 25 2 36 0 43 -8 30 -6 -9 -12 -42 -14 -73 -5 -62 -13 -80 -20 -44 -2 13 -9 49 -15 79 -5 30 -17 87 -26 125 -9 39 -21 94 -26 124 -12 68 -57 240 -69 266 -5 11 -29 81 -54 155 -48 148 -69 204 -97 266 -11 22 -19 45 -19 51 0 7 -16 47 -36 90 -20 43 -40 87 -45 98 -20 45 -173 335 -211 400 -374 634 -865 1170 -1438 1567 -243 168 -370 244 -620 368 -135 67 -200 97 -335 155 -112 48 -433 154 -585 194 -112 29 -353 78 -495 100 -460 73 -1054 64 -1535 -23 -270 -49 -428 -91 -775 -208 -190 -63 -510 -212 -751 -349 -92 -52 -248 -154 -439 -286 -207 -143 -496 -402 -735 -658 -141 -152 -433 -534 -516 -675 -21 -36 -64 -104 -95 -153 -32 -48 -61 -97 -65 -110 -4 -12 -10 -24 -14 -27 -4 -3 -44 -79 -88 -170 -43 -91 -89 -185 -101 -210 -28 -57 -127 -297 -136 -330 -20 -75 -78 -257 -85 -271 -5 -9 -12 -33 -15 -53 -4 -20 -11 -36 -16 -36 -5 0 -9 -12 -9 -27 0 -14 -7 -49 -15 -77 -8 -28 -28 -125 -45 -216 -17 -91 -38 -194 -46 -230 -8 -36 -14 -77 -14 -92 0 -16 -4 -28 -9 -28 -5 0 -7 38 -5 85 2 47 0 85 -5 85 -4 0 -13 -33 -20 -72 -7 -40 -16 -86 -21 -101 -5 -15 -6 -69 -3 -120 6 -88 7 -91 20 -62 12 26 13 13 7 -110 -4 -77 -10 -252 -14 -390 -3 -137 -7 -226 -8 -197 -1 33 -6 51 -12 47 -5 -3 -10 -15 -10 -25 0 -10 -4 -22 -10 -25 -6 -4 -9 12 -7 43 2 40 5 48 19 44 14 -3 16 5 16 62 0 48 -4 66 -13 66 -10 0 -12 13 -8 55 4 39 2 55 -6 55 -9 0 -9 5 -1 21 9 16 8 26 -4 44 -13 20 -15 58 -13 233 1 146 -1 208 -8 205 -14 -5 -17 90 -5 132 11 38 19 99 20 148 0 40 20 44 20 4 1 -23 0 -23 61 51 6 7 13 38 16 68 3 30 9 51 14 47 4 -4 4 -27 0 -50 -5 -24 -4 -40 0 -37 5 3 9 16 9 30 0 13 5 24 11 24 8 0 9 11 5 33 -4 22 -3 27 3 17 6 -8 13 -11 18 -7 4 4 2 17 -5 28 -7 11 -10 30 -6 42 4 15 3 19 -4 12 -5 -5 -13 -19 -16 -30 -3 -11 -3 -2 0 20 3 25 1 35 -4 27 -13 -20 -21 6 -11 38 4 14 7 19 8 11 1 -8 4 -11 7 -8 4 4 1 13 -5 21 -8 9 -10 27 -6 46 4 20 3 30 -5 30 -14 0 -10 28 20 155 35 146 104 331 236 632 8 17 14 34 14 37 0 18 124 275 155 321 14 20 25 38 25 40 0 5 130 230 177 305 46 74 89 137 186 273 149 208 532 629 707 777 35 30 85 73 110 96 136 122 454 355 590 432 19 10 84 49 144 86 220 135 599 308 877 400 172 57 513 146 654 172 211 38 411 60 710 77 111 7 169 6 375 -3z m1847 -2018 c-31 -64 -83 -182 -117 -262 -35 -80 -70 -163 -80 -185 -28 -65 -85 -195 -115 -265 -15 -36 -38 -88 -51 -116 -27 -59 -129 -289 -186 -419 -22 -49 -60 -132 -84 -184 -24 -51 -44 -95 -44 -98 0 -2 -9 -24 -20 -48 -36 -78 -232 -519 -252 -565 -11 -25 -46 -103 -78 -175 -32 -71 -81 -182 -109 -245 -227 -517 -313 -692 -481 -980 -41 -69 -87 -149 -103 -179 -15 -30 -37 -67 -47 -81 -11 -15 -54 -87 -96 -161 -42 -74 -86 -150 -97 -169 -11 -19 -39 -69 -62 -110 -23 -41 -63 -111 -90 -155 -26 -44 -64 -109 -85 -145 -20 -36 -53 -92 -73 -125 -20 -33 -55 -94 -78 -135 -23 -41 -60 -101 -81 -132 -21 -32 -41 -66 -45 -75 -4 -10 -16 -34 -28 -53 -12 -19 -41 -69 -65 -110 -24 -41 -68 -115 -99 -165 -70 -112 -75 -120 -104 -175 -84 -160 -171 -299 -179 -288 -6 10 -10 10 -19 -2 -13 -18 -3 53 11 79 5 9 21 43 34 76 25 60 98 217 115 245 5 8 16 33 24 55 58 151 131 326 209 499 50 111 117 264 150 341 32 77 65 154 72 170 8 17 28 64 46 105 18 41 43 98 55 125 13 28 56 124 95 215 39 91 89 201 110 245 44 92 80 172 80 178 0 3 25 57 55 121 30 64 55 118 55 121 0 3 36 81 79 173 66 140 143 280 274 502 11 19 41 73 67 120 26 47 118 209 205 360 87 151 169 295 183 320 14 25 44 77 67 115 36 60 257 443 395 685 24 41 60 102 81 135 20 33 67 114 104 180 37 66 116 201 175 300 122 204 148 251 222 388 71 132 74 96 5 -51z m-2833 -603 c359 -35 654 -158 845 -352 169 -173 251 -355 283 -632 11 -101 5 -340 -10 -400 -60 -232 -99 -328 -187 -460 -64 -94 -93 -126 -200 -220 -169 -149 -319 -224 -566 -284 -323 -78 -600 -64 -970 50 -71 21 -131 39 -134 39 -3 0 -5 -303 -5 -674 0 -709 3 -770 46 -863 52 -113 195 -179 414 -192 l105 -6 3 -59 3 -59 -218 7 c-120 3 -475 7 -789 7 -516 0 -571 2 -570 16 2 24 -25 28 -31 4 -10 -38 -23 -22 -23 29 0 56 -6 54 140 65 92 7 121 11 151 19 22 6 23 6 6 -7 -15 -13 -15 -16 -2 -27 8 -7 25 -10 40 -6 14 4 25 2 25 -4 0 -5 19 -10 43 -10 43 0 44 0 54 45 8 35 7 51 -4 72 -12 24 -11 31 8 72 12 25 30 84 40 131 17 80 18 175 19 1520 0 1497 -5 1719 -40 1833 -22 72 -74 138 -129 167 -54 27 -153 51 -246 58 l-80 7 0 60 0 60 760 5 c844 6 1073 4 1219 -11z m2756 -884 c152 -24 550 -128 550 -144 3 -81 13 -261 20 -341 5 -58 16 -190 25 -295 8 -104 17 -195 20 -202 6 -17 -15 -30 -62 -36 -26 -3 -46 -1 -51 7 -5 6 -21 52 -37 101 -104 334 -272 571 -478 676 -89 46 -287 96 -323 82 -25 -10 -25 21 1 80 15 34 32 68 38 75 13 17 179 16 297 -3z m2797 -147 c-3 -8 -6 -5 -6 6 -1 11 2 17 5 13 3 -3 4 -12 1 -19z m15 -38 c0 -11 1 -25 2 -32 1 -6 -4 -13 -10 -15 -6 -2 -11 11 -12 32 -1 36 17 50 20 15z m-9635 -402 c-3 -8 -6 -5 -6 6 -1 11 2 17 5 13 3 -3 4 -12 1 -19z m-2 -86 c-8 -9 -25 20 -18 31 3 5 10 2 15 -7 6 -10 7 -20 3 -24z m9752 -14 c-3 -7 -5 -2 -5 12 0 14 2 19 5 13 2 -7 2 -19 0 -25z m13 -93 c0 -25 -2 -27 -14 -15 -16 16 -19 31 -17 70 l2 25 14 -25 c8 -14 14 -38 15 -55z m-100 1 c0 -3 -4 -8 -10 -11 -5 -3 -10 -1 -10 4 0 6 5 11 10 11 6 0 10 -2 10 -4z m-9643 -228 c-3 -7 -5 -2 -5 12 0 14 2 19 5 13 2 -7 2 -19 0 -25z m9772 -20 c0 -7 -4 -22 -8 -33 -7 -17 -9 -15 -13 13 -3 22 -1 32 9 32 7 0 13 -6 12 -12z m18 -200 c-2 -18 -4 -6 -4 27 0 33 2 48 4 33 2 -15 2 -42 0 -60z m-3823 -195 c70 -65 226 -169 338 -225 42 -21 79 -38 82 -38 2 0 33 -16 68 -36 34 -20 120 -65 190 -101 157 -79 279 -147 338 -188 25 -18 77 -53 115 -80 98 -68 220 -184 305 -291 25 -32 80 -124 80 -135 0 -5 7 -20 15 -32 23 -36 64 -154 85 -249 36 -159 23 -413 -29 -582 -41 -134 -92 -224 -201 -359 -87 -108 -169 -173 -322 -256 -52 -28 -80 -28 -63 -1 3 6 2 10 -3 10 -15 0 -24 -33 -12 -40 36 -22 -208 -101 -400 -130 -192 -28 -333 -34 -506 -21 -134 10 -191 19 -397 61 -86 17 -160 41 -301 97 -161 64 -206 88 -207 111 0 10 -5 42 -10 72 -17 99 -100 657 -113 763 -6 48 -6 48 32 64 20 9 52 16 71 17 l34 1 32 -100 c47 -148 101 -268 169 -375 158 -251 307 -385 528 -475 139 -57 218 -70 418 -69 171 0 177 1 270 33 156 54 222 93 308 179 82 83 134 173 183 317 21 62 24 87 23 225 0 168 -11 225 -61 328 -68 143 -178 269 -334 386 -116 87 -243 161 -542 317 -215 112 -465 265 -496 302 -19 23 -12 44 78 229 43 90 95 200 116 246 21 45 42 82 48 82 5 0 37 -26 71 -57z m3773 -85 c-3 -7 -5 -2 -5 12 0 14 2 19 5 13 2 -7 2 -19 0 -25z m-9740 -480 c-3 -7 -5 -2 -5 12 0 14 2 19 5 13 2 -7 2 -19 0 -25z m9790 -40 c-2 -13 -4 -5 -4 17 -1 22 1 32 4 23 2 -10 2 -28 0 -40z m-9840 -40 c-3 -8 -6 -5 -6 6 -1 11 2 17 5 13 3 -3 4 -12 1 -19z m12 -88 c1 -13 0 -13 -9 0 -5 8 -9 24 -9 35 l0 20 9 -20 c5 -11 9 -27 9 -35z m9686 -163 c-2 -18 2 -41 7 -51 8 -15 7 -18 -3 -14 -11 4 -14 -5 -14 -36 0 -22 -3 -53 -7 -69 -4 -18 -3 -25 4 -21 6 4 8 1 6 -7 -3 -8 -10 -13 -16 -12 -6 2 -9 -3 -6 -11 3 -7 -2 -31 -11 -52 -14 -32 -15 -57 -10 -135 5 -83 4 -97 -9 -102 -13 -5 -15 -2 -10 17 4 19 2 24 -13 23 -10 -1 -21 -11 -25 -22 -20 -55 18 142 43 223 6 18 12 47 14 65 13 103 41 254 46 246 3 -6 5 -24 4 -42z m34 -179 c-1 -35 -2 -38 -8 -18 -7 23 -4 60 5 60 2 0 4 -19 3 -42z m-126 -368 c-3 -11 -7 -20 -9 -20 -2 0 -4 9 -4 20 0 11 4 20 9 20 5 0 7 -9 4 -20z m47 -1 c0 -15 -18 -19 -23 -6 -3 8 1 14 9 14 8 0 14 -4 14 -8z m-17 -59 c3 -11 1 -23 -4 -26 -5 -3 -9 6 -9 20 0 31 6 34 13 6z m-102 -93 c-10 -9 -11 -8 -5 6 3 10 9 15 12 12 3 -3 0 -11 -7 -18z m-7032 -18 c-25 -16 -32 -9 -13 12 12 13 20 16 22 9 3 -7 -2 -16 -9 -21z m21 -25 c0 -8 -5 -12 -10 -9 -6 4 -8 11 -5 16 9 14 15 11 15 -7z m7000 -56 c0 -10 -6 -18 -14 -18 -9 0 -12 -7 -9 -19 3 -12 12 -18 23 -16 12 2 17 -1 14 -10 -3 -7 -1 -16 5 -20 14 -8 14 -35 1 -35 -5 0 -10 10 -10 21 0 18 -2 19 -15 9 -14 -12 -14 -15 2 -32 14 -16 15 -24 5 -52 -7 -18 -12 -46 -12 -63 0 -27 -15 -44 -36 -42 -4 0 -10 -5 -15 -12 -14 -24 -18 -5 -6 34 13 42 24 47 29 15 3 -22 4 -22 9 -3 3 11 -2 38 -12 60 -16 38 -18 38 -18 12 -1 -15 -8 -30 -16 -33 -8 -4 -15 -14 -15 -23 0 -20 -39 -85 -47 -78 -3 3 2 18 10 34 17 31 75 190 97 265 14 45 29 48 30 6z m-7024 17 c-22 -16 -46 -20 -46 -7 0 15 13 22 39 22 25 -1 25 -1 7 -15z m7109 -75 c3 -5 1 -10 -4 -10 -6 0 -11 5 -11 10 0 6 2 10 4 10 3 0 8 -4 11 -10z m-20 -67 c-3 -15 -15 -45 -25 -68 -10 -22 -21 -55 -25 -72 -8 -39 -23 -53 -20 -19 4 36 28 96 38 96 4 0 6 14 3 30 -2 17 0 28 5 24 5 -3 9 4 9 15 0 12 5 21 11 21 7 0 9 -10 4 -27z m-90 -243 c3 -5 1 -10 -4 -10 -6 0 -11 5 -11 10 0 6 2 10 4 10 3 0 8 -4 11 -10z m-261 -308 c-4 -18 -10 -32 -15 -32 -5 0 -9 -7 -9 -15 0 -8 -5 -15 -11 -15 -6 0 -9 3 -7 8 2 4 12 26 23 49 22 48 28 50 19 5z m-34 -76 c0 -2 -7 -9 -15 -16 -13 -11 -14 -10 -9 4 5 14 24 23 24 12z m95 -63 c-9 -17 -23 -37 -32 -44 -19 -16 -16 -7 21 48 25 39 31 37 11 -4z m-115 18 c0 -5 -7 -14 -15 -21 -8 -7 -15 -19 -15 -27 0 -8 -4 -12 -9 -9 -11 7 16 66 30 66 5 0 9 -4 9 -9z m69 -98 c-7 -10 -14 -19 -15 -21 -1 -2 -4 4 -8 13 -3 9 -2 13 3 10 5 -3 12 -1 16 5 3 5 9 10 12 10 3 0 -1 -8 -8 -17z m-5299 -327 c0 -3 -4 -8 -10 -11 -5 -3 -10 -1 -10 4 0 6 5 11 10 11 6 0 10 -2 10 -4z m-13 -58 c-3 -7 -5 -2 -5 12 0 14 2 19 5 13 2 -7 2 -19 0 -25z m-30 -50 c-3 -7 -5 -2 -5 12 0 14 2 19 5 13 2 -7 2 -19 0 -25z m-57 -108 c-28 -55 -40 -71 -40 -52 0 10 59 112 65 112 3 0 -8 -27 -25 -60z m3540 -1260 c0 -5 -5 -10 -11 -10 -5 0 -7 5 -4 10 3 6 8 10 11 10 2 0 4 -4 4 -10z m-460 -260 c0 -5 -9 -10 -21 -10 -11 0 -17 5 -14 10 3 6 13 10 21 10 8 0 14 -4 14 -10z m-50 -20 c0 -5 -7 -10 -16 -10 -8 0 -12 5 -9 10 3 6 10 10 16 10 5 0 9 -4 9 -10z m250 -6 c0 -4 -116 -62 -140 -69 -23 -7 -23 -7 -7 9 9 10 15 22 12 27 -4 5 5 9 19 9 18 0 24 4 20 14 -4 11 6 14 45 13 28 0 51 -2 51 -3z m-740 -199 c-25 -13 -61 -24 -80 -24 l-35 1 30 8 c17 4 48 15 70 23 59 23 66 19 15 -8z m-40 -49 c0 -2 -7 -6 -15 -10 -8 -3 -15 -1 -15 4 0 6 7 10 15 10 8 0 15 -2 15 -4z m215 -8 c-16 -5 -43 -16 -60 -23 -49 -21 -73 -26 -79 -17 -3 5 0 9 7 10 19 2 83 20 74 21 -5 1 -6 4 -3 9 2 4 24 8 48 9 41 1 42 1 13 -9z m-127 -13 c2 -2 -18 -6 -43 -10 -26 -3 -49 -4 -53 -1 -3 3 5 6 17 6 12 0 19 4 16 10 -5 8 52 3 63 -5z m-575 -72 c-7 -2 -21 -2 -30 0 -10 3 -4 5 12 5 17 0 24 -2 18 -5z m-33 -23 c0 -5 -5 -10 -11 -10 -5 0 -7 5 -4 10 3 6 8 10 11 10 2 0 4 -4 4 -10z m-733 -156 c-3 -3 -12 -4 -19 -1 -8 3 -5 6 6 6 11 1 17 -2 13 -5z m361 -1 c-10 -2 -26 -2 -35 0 -10 3 -2 5 17 5 19 0 27 -2 18 -5z m-679 -29 c2 -2 -45 -4 -105 -4 -75 0 -104 3 -94 10 13 9 188 3 199 -6z m510 11 c-3 -2 -90 -6 -195 -8 -105 -2 -151 -1 -104 3 108 8 305 12 299 5z"/>
<path d="M9920 7405 c0 -8 4 -15 10 -15 5 0 7 7 4 15 -4 8 -8 15 -10 15 -2 0 -4 -7 -4 -15z"/>
<path d="M9962 7310 c0 -19 2 -27 5 -17 2 9 2 25 0 35 -3 9 -5 1 -5 -18z"/>
<path d="M844 7299 c-3 -6 -1 -16 5 -22 8 -8 11 -5 11 11 0 24 -5 28 -16 11z"/>
<path d="M9896 7285 c-9 -26 -7 -32 5 -12 6 10 9 21 6 23 -2 3 -7 -2 -11 -11z"/>
<path d="M722 6663 c-1 -12 -6 -25 -12 -28 -5 -3 -10 -15 -10 -25 0 -10 -5 -20 -12 -22 -7 -3 -9 -14 -3 -34 l8 -29 8 28 c4 16 13 34 19 42 6 7 10 31 7 52 -2 21 -4 28 -5 16z"/>
<path d="M10116 6645 c-3 -9 -6 -22 -5 -28 0 -7 5 -1 10 12 5 13 8 26 5 28 -2 2 -6 -3 -10 -12z"/>
<path d="M681 6464 c0 -11 3 -14 6 -6 3 7 2 16 -1 19 -3 4 -6 -2 -5 -13z"/>
<path d="M10180 6381 c0 -5 5 -13 10 -16 6 -3 10 -2 10 4 0 5 -4 13 -10 16 -5 3 -10 2 -10 -4z"/>
<path d="M10192 6295 c0 -16 2 -22 5 -12 2 9 2 23 0 30 -3 6 -5 -1 -5 -18z"/>
<path d="M533 6085 c0 -33 2 -45 4 -27 2 18 2 45 0 60 -2 15 -4 0 -4 -33z"/>
<path d="M10311 6056 c-11 -13 -11 -20 -3 -28 15 -15 24 -5 20 23 -3 21 -4 21 -17 5z"/>
<path d="M500 6024 c0 -14 4 -23 10 -19 6 3 10 15 10 26 0 10 -4 19 -10 19 -5 0 -10 -12 -10 -26z"/>
<path d="M552 6020 c0 -14 2 -19 5 -12 2 6 2 18 0 25 -3 6 -5 1 -5 -13z"/>
<path d="M10241 6001 c-1 -27 2 -32 11 -23 8 8 8 17 0 34 -10 22 -11 21 -11 -11z"/>
<path d="M10271 5074 c0 -11 3 -14 6 -6 3 7 2 16 -1 19 -3 4 -6 -2 -5 -13z"/>
<path d="M10298 4594 c-2 -5 -5 -22 -5 -39 -1 -16 1 -23 4 -15 3 8 10 18 16 21 6 4 6 13 0 24 -6 10 -12 14 -15 9z"/>
<path d="M4681 3043 c-6 -21 -11 -48 -11 -60 0 -13 -4 -23 -10 -23 -5 0 -10 -14 -10 -31 0 -16 -4 -28 -9 -25 -10 6 -25 -43 -16 -52 3 -3 5 0 5 7 0 7 7 19 15 28 9 8 19 28 22 44 3 16 11 29 18 29 7 0 11 14 11 33 -1 17 3 44 7 60 4 16 3 27 -2 27 -6 0 -15 -17 -20 -37z"/>
<path d="M3890 7655 c-128 -26 -178 -65 -199 -155 -7 -29 -11 -349 -11 -901 l0 -856 28 -13 c104 -48 267 -87 420 -99 205 -17 396 14 537 85 240 122 374 292 459 584 27 96 39 200 40 350 0 358 -91 606 -292 791 -38 35 -94 79 -124 97 -81 48 -218 92 -353 113 -143 22 -405 24 -505 4z"/>
<path d="M3095 3820 c-19 -7 -19 -8 -2 -15 19 -8 31 -2 26 13 -2 5 -13 6 -24 2z"/>
<path d="M2962 3754 c3 -3 34 -7 69 -10 35 -3 68 -7 73 -7 5 -1 11 4 13 11 4 9 -16 12 -78 12 -45 0 -80 -2 -77 -6z"/>
<path d="M2690 3739 c0 -5 5 -7 10 -4 6 3 10 8 10 11 0 2 -4 4 -10 4 -5 0 -10 -5 -10 -11z"/>
<path d="M7595 2970 c-3 -6 1 -7 9 -4 18 7 21 14 7 14 -6 0 -13 -4 -16 -10z"/>
</g>
</svg>
